<svg xmlns="http://www.w3.org/2000/svg" data-name="Layer 1" viewBox="0 0 100 125" x="0px" y="0px"><title>150all</title><path d="M82.25,30.64h-3l-14.9-14.9A3,3,0,0,0,60.1,20L70.76,30.64H30.24L40.9,20a3,3,0,0,0-4.24-4.24l-14.9,14.9h-4a8.75,8.75,0,0,0-2.44,17.15l4.35,26.46A13,13,0,0,0,32.49,85.14h35A13,13,0,0,0,80.34,74.25l4.35-26.46a8.75,8.75,0,0,0-2.44-17.15ZM74.42,73.27a7,7,0,0,1-6.91,5.87h-35a7,7,0,0,1-6.91-5.86L21.45,48.14h57.1Zm7.83-31.13H17.75a2.75,2.75,0,1,1,0-5.5h64.5a2.75,2.75,0,0,1,0,5.5Z"/><text x="0" y="115" fill="#000000" font-size="5px" font-weight="bold" font-family="'Helvetica Neue', Helvetica, Arial-Unicode, Arial, Sans-serif">Created by Kiran Shastry</text><text x="0" y="120" fill="#000000" font-size="5px" font-weight="bold" font-family="'Helvetica Neue', Helvetica, Arial-Unicode, Arial, Sans-serif">from the Noun Project</text></svg>