<svg xmlns="http://www.w3.org/2000/svg" data-name="Layer 1" viewBox="0 0 100 125" x="0px" y="0px"><title>4Artboard 8</title><path d="M39.4,59H75.57L86.25,24.14A5.83,5.83,0,0,1,91.83,20a6.14,6.14,0,0,1,2.73.56,6,6,0,0,1,3.17,7.21l-12,39A6,6,0,0,1,80,71H35a6,6,0,0,1-5.72-4.19L12.6,14H8A6,6,0,0,1,8,2h9a6,6,0,0,1,5.72,4.19ZM50,89a9,9,0,1,0-9,9A9,9,0,0,0,50,89Zm33,0a9,9,0,1,0-9,9A9,9,0,0,0,83,89ZM57.5,48.5a6,6,0,0,0,6-6v-15H72a4.93,4.93,0,0,0,3.67-8.21L62.07,4.1a6.13,6.13,0,0,0-9.13,0L39.35,19.29A4.93,4.93,0,0,0,43,27.5H51.5v15A6,6,0,0,0,57.5,48.5Z"/><text x="0" y="115" fill="#000000" font-size="5px" font-weight="bold" font-family="'Helvetica Neue', Helvetica, Arial-Unicode, Arial, Sans-serif">Created by Gregor Cresnar</text><text x="0" y="120" fill="#000000" font-size="5px" font-weight="bold" font-family="'Helvetica Neue', Helvetica, Arial-Unicode, Arial, Sans-serif">from the Noun Project</text></svg>