<svg xmlns="http://www.w3.org/2000/svg" xmlns:xlink="http://www.w3.org/1999/xlink" version="1.1" x="0px" y="0px" viewBox="0 0 100 125" style="enable-background:new 0 0 100 100;" xml:space="preserve"><g><path d="M82.2,39c-1.3-8.4-3.8-16.5-7.6-23.9c-0.9-1.9-2.1-3.7-2.5-4.1c-1.1-1.1-3.5-1.2-4.9-0.3c-1,0.6-2,2.3-2,3.4   c0,0.3,0.9,2.4,2.1,4.7c5.3,10.7,7.4,19.6,7.4,31.1c0,11.9-2.4,21.7-7.9,32.3c-1.4,2.6-1.6,3.3-1.4,4.2c0.3,1.5,1.6,3,2.9,3.4   c0.6,0.2,1.2,0.2,1.4,0.2c0.2-0.1,0.6-0.1,0.9-0.1c1.2,0,2.6-1.9,4.8-6.6c3.7-7.7,6-15.6,7.2-24.4C83.1,54.1,83,44.2,82.2,39z"/><path d="M62.8,31.5c-1.4-4.2-4.9-11.5-6-12.5c-1.6-1.5-4.7-1.2-6,0.5c-1.3,1.9-1.2,2.6,1,7.2c3.4,6.8,4.7,11.5,5.4,19   c0.9,9-0.9,18.2-5.1,26.8c-1,2-1.9,4-2.1,4.5c-0.6,1.8,0.9,4.2,2.8,4.8c2.9,0.9,5-1.3,7.9-8.2C66.6,60,67.2,45.3,62.8,31.5z"/><path d="M38.6,26c-1.3,0-1.7,0.2-2.7,1.1c-1.9,1.8-1.9,2.7,0.4,7.3c5.2,10.5,5.1,20.8-0.2,31.5c-1.4,2.9-1.7,3.8-1.6,4.6   c0.3,1.3,1.3,2.6,2.5,3.1c0.5,0.2,1.5,0.4,2,0.3c1.9-0.3,2.8-1.3,4.7-5.1c3.3-6.7,4.5-11.6,4.5-18.8c0-7-1.2-12.5-4.3-18.8   C42,27.1,40.8,26,38.6,26z"/><path d="M23.3,33.5c-2.3,0.4-3.9,2.9-3.3,4.9c0.1,0.5,0.8,1.7,1.4,2.8c1.9,3.1,2.3,4.7,2.3,8.7c0,4-0.4,5.6-2.3,8.7   C19.9,61,19.6,62,20,63.2c0.3,1.1,1.4,2.4,2.4,2.8c2.1,0.9,4.1-0.1,5.9-2.9c5.1-7.9,5.1-18.5,0-26.4C26.5,34,25.2,33.2,23.3,33.5z"/></g><text x="0" y="115" fill="#000000" font-size="5px" font-weight="bold" font-family="'Helvetica Neue', Helvetica, Arial-Unicode, Arial, Sans-serif">Created by Theo K.</text><text x="0" y="120" fill="#000000" font-size="5px" font-weight="bold" font-family="'Helvetica Neue', Helvetica, Arial-Unicode, Arial, Sans-serif">from the Noun Project</text></svg>