<svg xmlns="http://www.w3.org/2000/svg" xmlns:xlink="http://www.w3.org/1999/xlink" version="1.1" x="0px" y="0px" viewBox="0 0 64 80" style="enable-background:new 0 0 64 64;" xml:space="preserve"><g><path d="M33,9H7c-1.103,0-2,0.897-2,2v42c0,1.103,0.897,2,2,2h26c1.103,0,2-0.897,2-2V11C35,9.897,34.103,9,33,9z M7,53V11h26   l0.001,42H7z"/><rect x="19" y="5" width="6" height="2"/><rect x="15" y="5" width="2" height="2"/><rect x="15" y="57" width="10" height="2"/><path d="M31,37H17.251L17,34c0-1.654-1.346-3-3-3h-2c-1.654,0-3,1.346-3,3s1.346,3,3,3h3.247l0.684,8.206   C14.805,45.638,14,46.724,14,48c0,1.654,1.346,3,3,3s3-1.346,3-3c0-0.352-0.072-0.686-0.184-1h5.369C25.072,47.314,25,47.648,25,48   c0,1.654,1.346,3,3,3s3-1.346,3-3c0-1.209-0.722-2.246-1.754-2.721l1.716-6.004L31,37z M12,35c-0.551,0-1-0.449-1-1s0.449-1,1-1h2   c0.551,0,1,0.449,1.003,1.083L15.08,35H12z M28.96,39l-1.714,6H17.92l-0.502-6H28.96z M18,48c0,0.551-0.449,1-1,1s-1-0.449-1-1   s0.449-1,1-1S18,47.449,18,48z M28,49c-0.551,0-1-0.449-1-1s0.449-1,1-1s1,0.449,1,1S28.551,49,28,49z"/><path d="M15,13H9v6h6V13z M13,17h-2v-2h2V17z"/><path d="M23,13h-6v6h6V13z M21,17h-2v-2h2V17z"/><path d="M25,19h6v-6h-6V19z M27,15h2v2h-2V15z"/><path d="M15,21H9v6h6V21z M13,25h-2v-2h2V25z"/><path d="M23,21h-6v6h6V21z M21,25h-2v-2h2V25z"/><path d="M25,27h6v-6h-6V27z M27,23h2v2h-2V23z"/><path d="M44,49c-1.654,0-3,1.346-3,3s1.346,3,3,3s3-1.346,3-3S45.654,49,44,49z M44,53c-0.551,0-1-0.449-1-1s0.449-1,1-1   s1,0.449,1,1S44.551,53,44,53z"/><path d="M44,45v2c2.757,0,5,2.243,5,5h2C51,48.14,47.86,45,44,45z"/><path d="M44,41v2c4.962,0,9,4.038,9,9h2C55,45.935,50.065,41,44,41z"/><path d="M60,21h-1V8c0-1.654-1.346-3-3-3H38.899C38.434,2.721,36.414,1,34,1H6C3.243,1,1,3.243,1,6v52c0,2.757,2.243,5,5,5h28   c2.414,0,4.434-1.721,4.899-4H56c1.654,0,3-1.346,3-3V41h1c1.654,0,3-1.346,3-3V24C63,22.346,61.654,21,60,21z M37,58   c0,1.654-1.346,3-3,3H6c-1.654,0-3-1.346-3-3V6c0-1.654,1.346-3,3-3h28c1.654,0,3,1.346,3,3V58z M57,8v13h-7.586l4.293-4.293   C54.541,15.874,55,14.765,55,13.586v-0.172C55,10.98,53.02,9,50.586,9h-0.172C49.543,9,48.711,9.25,48,9.717   C47.289,9.25,46.457,9,45.586,9h-0.172C42.98,9,41,10.98,41,13.414v0.172c0,1.179,0.459,2.288,1.293,3.121L46.586,21H46   c-1.654,0-3,1.346-3,3v1h-4V7h17C56.551,7,57,7.449,57,8z M48,19.586l-4.293-4.293C43.258,14.844,43,14.221,43,13.586v-0.172   C43,12.083,44.083,11,45.414,11h0.172c0.635,0,1.258,0.258,1.707,0.707L48,12.414l0.707-0.707C49.156,11.258,49.779,11,50.414,11   h0.172C51.917,11,53,12.083,53,13.414v0.172c0,0.635-0.258,1.258-0.707,1.707L48,19.586z M39,37V27h4v10H39z M57,56   c0,0.551-0.449,1-1,1H39V39h17c0.551,0,1,0.449,1,1V56z M61,38c0,0.551-0.449,1-1,1h-1.184c-0.414-1.161-1.514-2-2.816-2h-7.764   l12-6L47,24.382V37h-2V24c0-0.551,0.449-1,1-1h14c0.551,0,1,0.449,1,1V38z M49,34.382v-6.764L55.764,31L49,34.382z"/></g><text x="0" y="79" fill="#000000" font-size="5px" font-weight="bold" font-family="'Helvetica Neue', Helvetica, Arial-Unicode, Arial, Sans-serif">Created by Eucalyp</text><text x="0" y="84" fill="#000000" font-size="5px" font-weight="bold" font-family="'Helvetica Neue', Helvetica, Arial-Unicode, Arial, Sans-serif">from the Noun Project</text></svg>