<svg xmlns="http://www.w3.org/2000/svg" xmlns:xlink="http://www.w3.org/1999/xlink" version="1.1" x="0px" y="0px" viewBox="0 0 512 640" enable-background="new 0 0 512 512" xml:space="preserve"><path d="M379.057,10.209H107.407c-18.063,0-32.754,14.69-32.754,32.746l0.233,392.514c0,7.658,5.326,14.307,12.809,15.957  l226.071,50.079c4.837,1.073,9.9-0.112,13.77-3.204c3.86-3.107,6.111-7.802,6.111-12.752v-38.193h45.41  c18.063,0,32.754-14.691,32.754-32.746V42.955C411.811,24.899,397.12,10.209,379.057,10.209z M278.646,246.768l-154.063-38.837  c-4.708-1.187-8.006-5.42-8.006-10.275v-50.962c0-6.902,6.494-11.962,13.187-10.275l154.063,38.837  c4.708,1.187,8.006,5.421,8.006,10.275v50.962C291.832,243.395,285.338,248.455,278.646,246.768z M333.646,414.558V92.906  c0-7.77-5.463-14.466-13.071-16.021L154.93,43.007l224.071-0.052l0.017,371.591L333.646,414.558z M379.057,414.546h0.017"/><text x="0" y="527" fill="#000000" font-size="5px" font-weight="bold" font-family="'Helvetica Neue', Helvetica, Arial-Unicode, Arial, Sans-serif">Created by Alex Bu</text><text x="0" y="532" fill="#000000" font-size="5px" font-weight="bold" font-family="'Helvetica Neue', Helvetica, Arial-Unicode, Arial, Sans-serif">from the Noun Project</text></svg>