<svg xmlns="http://www.w3.org/2000/svg" xmlns:xlink="http://www.w3.org/1999/xlink" xmlns:sketch="http://www.bohemiancoding.com/sketch/ns" viewBox="0 0 46 102.5" version="1.1" x="0px" y="0px"><title>Rectangle 1</title><desc>Created with Sketch.</desc><g stroke="none" stroke-width="1" fill="none" fill-rule="evenodd" sketch:type="MSPage"><g sketch:type="MSArtboardGroup" transform="translate(-22.000000, -4.000000)" fill="#000000"><path d="M22,9.99643347 C22,6.68469471 24.6888556,4 27.9900994,4 L62.0099006,4 C65.3181411,4 68,6.68166671 68,9.99643347 L68,80.0035665 C68,83.3153053 65.3111444,86 62.0099006,86 L27.9900994,86 C24.6818589,86 22,83.3183333 22,80.0035665 L22,9.99643347 Z M27,12.004193 C27,10.345023 28.3455393,9 30.0074199,9 L59.9925801,9 C61.6535323,9 63,10.3451639 63,12.004193 L63,66.995807 C63,68.654977 61.6544607,70 59.9925801,70 L30.0074199,70 C28.3464677,70 27,68.6548361 27,66.995807 L27,12.004193 Z M45,82 C47.209139,82 49,80.209139 49,78 C49,75.790861 47.209139,74 45,74 C42.790861,74 41,75.790861 41,78 C41,80.209139 42.790861,82 45,82 Z" sketch:type="MSShapeGroup"/></g></g><text x="0" y="97" fill="#000000" font-size="5px" font-weight="bold" font-family="'Helvetica Neue', Helvetica, Arial-Unicode, Arial, Sans-serif">Created by Thomas Drach</text><text x="0" y="102" fill="#000000" font-size="5px" font-weight="bold" font-family="'Helvetica Neue', Helvetica, Arial-Unicode, Arial, Sans-serif">from the Noun Project</text></svg>