<svg xmlns="http://www.w3.org/2000/svg" xmlns:xlink="http://www.w3.org/1999/xlink" version="1.1" x="0px" y="0px" viewBox="0 0 60 75" style="enable-background:new 0 0 60 60;" xml:space="preserve"><path d="M15.8056641,54.4428711c1.3994141,0,2.5380859-1.1386719,2.5380859-2.5380859V40.7980957  c1.1552734-0.2868042,2.0175781-1.3250732,2.0175781-2.5681152v-14.815918c0-1.9008789-1.546875-3.4472656-3.4472656-3.4472656  H8.4472656C6.546875,19.9667969,5,21.5131836,5,23.4140625v14.815918c0,1.2428589,0.8619995,2.2808838,2.0175781,2.5679321  v11.1068726c0,1.3994141,1.1386719,2.5380859,2.5380859,2.5380859H15.8056641z M7,23.4140625  c0-0.7978516,0.6494141-1.4472656,1.4472656-1.4472656h8.4667969c0.7978516,0,1.4472656,0.6494141,1.4472656,1.4472656v14.815918  c0,0.3603516-0.2929688,0.6538086-0.6533203,0.6538086H17.34375H8.0175781H7.6542969C7.2939453,38.8837891,7,38.590332,7,38.2299805  V23.4140625z M9.0175781,51.9047852V40.8837891H16.34375v11.0209961c0,0.296875-0.2412109,0.5380859-0.5380859,0.5380859h-6.25  C9.2587891,52.4428711,9.0175781,52.2016602,9.0175781,51.9047852z"/><path d="M6.4082031,11.8291016c0,3.4584961,2.8134766,6.2724609,6.2724609,6.2724609s6.2724609-2.8139648,6.2724609-6.2724609  s-2.8134766-6.2719727-6.2724609-6.2719727S6.4082031,8.3706055,6.4082031,11.8291016z M16.953125,11.8291016  c0,2.355957-1.9169922,4.2724609-4.2724609,4.2724609s-4.2724609-1.9165039-4.2724609-4.2724609  c0-2.3554688,1.9169922-4.2719727,4.2724609-4.2719727S16.953125,9.4736328,16.953125,11.8291016z"/><path d="M51.5527344,19.9667969h-8.4658203c-1.9003906,0-3.4472656,1.5463867-3.4472656,3.4472656v14.815918  c0,1.243042,0.8623047,2.281311,2.0175781,2.5681152v11.1066895c0,1.3994141,1.1376953,2.5380859,2.5371094,2.5380859h6.2509766  c1.3994141,0,2.5380859-1.1386719,2.5380859-2.5380859V40.7977905C54.1381836,40.5106201,55,39.4726563,55,38.2299805v-14.815918  C55,21.5131836,53.453125,19.9667969,51.5527344,19.9667969z M50.9833984,51.9047852  c0,0.296875-0.2412109,0.5380859-0.5380859,0.5380859h-6.2509766c-0.2958984,0-0.5371094-0.2412109-0.5371094-0.5380859V40.8837891  h7.3261719V51.9047852z M53,38.2299805c0,0.3603516-0.2929688,0.6538086-0.6533203,0.6538086h-0.3632813h-9.3261719h-0.3642578  c-0.3603516,0-0.6533203-0.293457-0.6533203-0.6538086v-14.815918c0-0.7978516,0.6494141-1.4472656,1.4472656-1.4472656h8.4658203  C52.3505859,21.9667969,53,22.6162109,53,23.4140625V38.2299805z"/><path d="M41.0478516,11.8291016c0,3.4584961,2.8134766,6.2724609,6.2724609,6.2724609  c3.4580078,0,6.2714844-2.8139648,6.2714844-6.2724609s-2.8134766-6.2719727-6.2714844-6.2719727  C43.8613281,5.5571289,41.0478516,8.3706055,41.0478516,11.8291016z M51.5917969,11.8291016  c0,2.355957-1.9160156,4.2724609-4.2714844,4.2724609s-4.2724609-1.9165039-4.2724609-4.2724609  c0-2.3554688,1.9169922-4.2719727,4.2724609-4.2719727S51.5917969,9.4736328,51.5917969,11.8291016z"/><path d="M32.7324219,21.1005859c0.1953125,0.1953125,0.4511719,0.2929688,0.7070313,0.2929688  s0.5117188-0.0976563,0.7070313-0.2929688l2.7337036-2.7332153c0.0918579-0.0916748,0.1652832-0.2012939,0.2160645-0.322937  c0.050415-0.1208496,0.0775757-0.2513428,0.0775757-0.3847656s-0.0271606-0.263916-0.0775757-0.3847656  c-0.0507813-0.1216431-0.1242065-0.2312622-0.2160645-0.322937L34.1464844,14.21875  c-0.390625-0.390625-1.0234375-0.390625-1.4140625,0s-0.390625,1.0239258,0,1.4140625l1.0270996,1.0268555h-7.5185547  l1.0266113-1.0268555c0.390625-0.390625,0.390625-1.0239258,0-1.4140625c-0.390625-0.390625-1.0234375-0.390625-1.4140625,0  l-2.7327271,2.7332153c-0.0925293,0.0923462-0.1657715,0.203064-0.2165527,0.3256836  c-0.1010742,0.2443848-0.1010742,0.5196533,0,0.7640381c0.0507813,0.1226196,0.1240234,0.2333374,0.2165527,0.3256836  l2.7327271,2.7332153c0.1953125,0.1953125,0.4511719,0.2929688,0.7070313,0.2929688s0.5117188-0.0976563,0.7070313-0.2929688  c0.390625-0.3901367,0.390625-1.0234375,0-1.4140625l-1.0266113-1.0268555h7.5185547l-1.0270996,1.0268555  C32.3417969,20.0766602,32.3417969,20.7099609,32.7324219,21.1005859z"/><text x="0" y="75" fill="#000000" font-size="5px" font-weight="bold" font-family="'Helvetica Neue', Helvetica, Arial-Unicode, Arial, Sans-serif">Created by Vectorstall</text><text x="0" y="80" fill="#000000" font-size="5px" font-weight="bold" font-family="'Helvetica Neue', Helvetica, Arial-Unicode, Arial, Sans-serif">from the Noun Project</text></svg>