<svg xmlns="http://www.w3.org/2000/svg" width="439.16009521484375" height="382.788330078125" viewBox="-190.54481506347656 -48.377227783203125 439.16009521484375 382.788330078125"><title>Neo4j Graph Visualization</title><desc>Created using Neo4j (http://www.neo4j.com/)</desc><g class="layer relationships"><g class="relationship" transform="translate(-127.54481460000194 128.98050418497252) rotate(329.0469570598913)"><path class="outline" fill="#A5ABB6" stroke="none" d="M 24.018736134675446,6.953439040707552 L 24.277555179777966,5.987513214418485 A 460.76034964567583 460.76034964567583 0 0 0 106.88628543677116,20.228026421528682 L 106.80675423690211,21.22485879873534 A 461.76034964567583 461.76034964567583 0 0 1 24.018736134675446,6.953439040707552 Z M 174.6030664373415,21.64093581481319 L 174.53577621295344,20.64320237059985 A 460.76034964567583 460.76034964567583 0 0 0 257.31306994390303,7.417690144050772 L 256.57223822215076,4.510600816210024 L 264.2197503291568,6.173597681268937 L 258.30084557290604,11.293809247838436 L 257.56001385115377,8.386719919997688 A 461.76034964567583 461.76034964567583 0 0 1 174.6030664373415,21.64093581481319"/><text text-anchor="middle" pointer-events="none" font-size="8px" fill="#000000" x="140.70033227307167" y="25.178855020426795" font-family="sans-serif">COMPLEMENTS</text></g><g class="relationship" transform="translate(-127.54481460000194 128.98050418497252) rotate(374.6047959586428)"><path class="outline" fill="#A5ABB6" stroke="none" d="M 24.018736134675446,6.953439040707552 L 24.277555179777966,5.987513214418485 A 570.4551279914458 570.4551279914458 0 0 0 135.14675752910648,24.238667341326618 L 135.0822906721238,25.236587189987176 A 571.4551279914458 571.4551279914458 0 0 1 24.018736134675446,6.953439040707552 Z M 202.88607128794757,25.58580690140991 L 202.83188704304206,24.587275946654927 A 570.4551279914458 570.4551279914458 0 0 0 313.88320565377325,7.4791114817475135 L 313.1366386127866,4.573489749086425 L 320.78741753681356,6.221392008222158 L 314.8786283750888,11.353273791962298 L 314.13206133410216,8.447652059301209 A 571.4551279914458 571.4551279914458 0 0 1 202.88607128794757,25.58580690140991"/><text text-anchor="middle" pointer-events="none" font-size="8px" fill="#000000" x="168.9815721217609" y="28.917727600344733" font-family="sans-serif">COMPLEMENTS</text></g><g class="relationship" transform="translate(-127.54481460000194 128.98050418497252) rotate(414.22271376271846)"><path class="outline" fill="#A5ABB6" stroke="none" d="M 24.018736134675446,6.953439040707552 L 24.277555179777966,5.987513214418485 A 315.07630080460814 315.07630080460814 0 0 0 69.47620548890004,14.61972928823559 L 69.36083947467827,15.613052338789942 A 316.07630080460814 316.07630080460814 0 0 1 24.018736134675446,6.953439040707552 Z M 137.12065992476218,16.170353480029405 L 137.02164789077978,15.17526724400426 A 315.07630080460814 315.07630080460814 0 0 0 182.35616808518358,7.287655257188912 L 181.6274792050493,4.377498471727238 L 189.26798206461655,6.072407334452496 L 183.327753258696,11.167864304471143 L 182.5990643785617,8.25770751900947 A 316.07630080460814 316.07630080460814 0 0 1 137.12065992476218,16.170353480029405"/><text text-anchor="middle" pointer-events="none" font-size="8px" fill="#000000" x="103.22988409262352" y="20.21280479037273" font-family="sans-serif">COMPLEMENTS</text></g><g class="relationship" transform="translate(-127.54481460000194 128.98050418497252) rotate(401.1125484543326)"><path class="outline" fill="#A5ABB6" stroke="none" d="M 25 0.5 L 41.96208674903929 0.5 L 41.96208674903929 -0.5 L 25 -0.5 Z M 88.70818049903929 0.5 L 105.67026724807857 0.5 L 105.67026724807857 3.5 L 112.67026724807857 0 L 105.67026724807857 -3.5 L 105.67026724807857 -0.5 L 88.70818049903929 -0.5 Z"/><text text-anchor="middle" pointer-events="none" font-size="8px" fill="#000000" x="65.33513362403929" y="3" font-family="sans-serif">CONTAINS</text></g><g class="relationship" transform="translate(-127.54481460000194 128.98050418497252) rotate(362.7312818375811)"><path class="outline" fill="#A5ABB6" stroke="none" d="M 25 0.5 L 78.80837215139918 0.5 L 78.80837215139918 -0.5 L 25 -0.5 Z M 125.55446590139918 0.5 L 179.36283805279837 0.5 L 179.36283805279837 3.5 L 186.36283805279837 0 L 179.36283805279837 -3.5 L 179.36283805279837 -0.5 L 125.55446590139918 -0.5 Z"/><text text-anchor="middle" pointer-events="none" font-size="8px" fill="#000000" x="102.18141902639918" y="3" font-family="sans-serif">CONTAINS</text></g><g class="relationship" transform="translate(-127.54481460000194 128.98050418497252) rotate(373.01275437581273)"><path class="outline" fill="#A5ABB6" stroke="none" d="M 25 0.5 L 53.82558096647189 0.5 L 53.82558096647189 -0.5 L 25 -0.5 Z M 100.57167471647189 0.5 L 129.39725568294378 0.5 L 129.39725568294378 3.5 L 136.39725568294378 0 L 129.39725568294378 -3.5 L 129.39725568294378 -0.5 L 100.57167471647189 -0.5 Z"/><text text-anchor="middle" pointer-events="none" font-size="8px" fill="#000000" x="77.19862784147189" y="3" font-family="sans-serif">CONTAINS</text></g><g class="relationship" transform="translate(-127.54481460000194 128.98050418497252) rotate(340.13167783530037)"><path class="outline" fill="#A5ABB6" stroke="none" d="M 25 0.5 L 62.24060293512953 0.5 L 62.24060293512953 -0.5 L 25 -0.5 Z M 108.98669668512953 0.5 L 146.22729962025906 0.5 L 146.22729962025906 3.5 L 153.22729962025906 0 L 146.22729962025906 -3.5 L 146.22729962025906 -0.5 L 108.98669668512953 -0.5 Z"/><text text-anchor="middle" pointer-events="none" font-size="8px" fill="#000000" x="85.61364981012953" y="3" font-family="sans-serif">CONTAINS</text></g><g class="relationship" transform="translate(-127.54481460000194 128.98050418497252) rotate(443.0803990103467)"><path class="outline" fill="#A5ABB6" stroke="none" d="M 25 0.5 L 30.11554389336731 0.5 L 30.11554389336731 -0.5 L 25 -0.5 Z M 76.86163764336732 0.5 L 81.97718153673462 0.5 L 81.97718153673462 3.5 L 88.97718153673462 0 L 81.97718153673462 -3.5 L 81.97718153673462 -0.5 L 76.86163764336732 -0.5 Z"/><text text-anchor="middle" pointer-events="none" font-size="8px" fill="#000000" x="53.48859076836731" y="3" font-family="sans-serif">CONTAINS</text></g><g class="relationship" transform="translate(111.09373467307904 305.411114165754) rotate(212.48684800649534)"><path class="outline" fill="#A5ABB6" stroke="none" d="M 25 0.5 L 53.098937975211896 0.5 L 53.098937975211896 -0.5 L 25 -0.5 Z M 99.8450317252119 0.5 L 127.94396970042379 0.5 L 127.94396970042379 3.5 L 134.9439697004238 0 L 127.94396970042379 -3.5 L 127.94396970042379 -0.5 L 99.8450317252119 -0.5 Z"/><text text-anchor="middle" pointer-events="none" font-size="8px" fill="#000000" x="76.4719848502119" y="3" transform="rotate(180 76.4719848502119 0)" font-family="sans-serif">CONTAINS</text></g><g class="relationship" transform="translate(212.71077494644214 291.93764022910455) rotate(229.81426858882963)"><path class="outline" fill="#A5ABB6" stroke="none" d="M 25 0.5 L 73.18845227525537 0.5 L 73.18845227525537 -0.5 L 25 -0.5 Z M 119.93454602525537 0.5 L 168.12299830051074 0.5 L 168.12299830051074 3.5 L 175.12299830051074 0 L 168.12299830051074 -3.5 L 168.12299830051074 -0.5 L 119.93454602525537 -0.5 Z"/><text text-anchor="middle" pointer-events="none" font-size="8px" fill="#000000" x="96.56149915025537" y="3" transform="rotate(180 96.56149915025537 0)" font-family="sans-serif">CONTAINS</text></g><g class="relationship" transform="translate(198.05230101878647 30.187422169905616) rotate(496.4387616867639)"><path class="outline" fill="#A5ABB6" stroke="none" d="M 25 0.5 L 52.11421769616328 0.5 L 52.11421769616328 -0.5 L 25 -0.5 Z M 98.86031144616328 0.5 L 125.97452914232656 0.5 L 125.97452914232656 3.5 L 132.97452914232656 0 L 125.97452914232656 -3.5 L 125.97452914232656 -0.5 L 98.86031144616328 -0.5 Z"/><text text-anchor="middle" pointer-events="none" font-size="8px" fill="#000000" x="75.48726457116328" y="3" transform="rotate(180 75.48726457116328 0)" font-family="sans-serif">CONTAINS</text></g><g class="relationship" transform="translate(206.3084705693568 215.97261328515495) rotate(196.00335139056762)"><path class="outline" fill="#A5ABB6" stroke="none" d="M 25 0.5 L 64.98730695266646 0.5 L 64.98730695266646 -0.5 L 25 -0.5 Z M 111.73340070266646 0.5 L 151.72070765533292 0.5 L 151.72070765533292 3.5 L 158.72070765533292 0 L 151.72070765533292 -3.5 L 151.72070765533292 -0.5 L 111.73340070266646 -0.5 Z"/><text text-anchor="middle" pointer-events="none" font-size="8px" fill="#000000" x="88.36035382766646" y="3" transform="rotate(180 88.36035382766646 0)" font-family="sans-serif">CONTAINS</text></g><g class="relationship" transform="translate(206.3084705693568 215.97261328515495) rotate(194.6047959586428)"><path class="outline" fill="#A5ABB6" stroke="none" d="M 24.018736134675446,6.953439040707552 L 24.277555179777966,5.987513214418485 A 570.4551279914458 570.4551279914458 0 0 0 135.14675752910648,24.238667341326618 L 135.0822906721238,25.236587189987176 A 571.4551279914458 571.4551279914458 0 0 1 24.018736134675446,6.953439040707552 Z M 202.88607128794757,25.58580690140991 L 202.83188704304206,24.587275946654927 A 570.4551279914458 570.4551279914458 0 0 0 313.88320565377325,7.4791114817475135 L 313.1366386127866,4.573489749086425 L 320.78741753681356,6.221392008222158 L 314.8786283750888,11.353273791962298 L 314.13206133410216,8.447652059301209 A 571.4551279914458 571.4551279914458 0 0 1 202.88607128794757,25.58580690140991"/><text text-anchor="middle" pointer-events="none" font-size="8px" fill="#000000" x="168.9815721217609" y="28.917727600344733" transform="rotate(180 168.9815721217609 25.917727600344733)" font-family="sans-serif">COMPLEMENTS</text></g><g class="relationship" transform="translate(206.3084705693568 215.97261328515495) rotate(279.9280335286334)"><path class="outline" fill="#A5ABB6" stroke="none" d="M 24.018736134675446,-6.953439040707552 L 24.277555179777966,-5.987513214418485 A 45.31338187735259 45.31338187735259 0 0 1 25.347716348549195,-6.260329077922975 L 25.112514193743404,-7.232275550921727 A 46.31338187735259 46.31338187735259 0 0 0 24.018736134675446,-6.953439040707552 Z M 44.94620036506087,-7.660348041199562 L 44.75315294345177,-6.679158613509848 A 45.31338187735259 45.31338187735259 0 0 1 45.834088491854466,-6.45277009188196 L 45.183382231782105,-3.524189998542759 L 52.77589308632466,-5.422552167269656 L 46.70169683861761,-10.357543549667561 L 46.050990578545246,-7.42896345632836 A 46.31338187735259 46.31338187735259 0 0 0 44.94620036506087,-7.660348041199562"/><text text-anchor="middle" pointer-events="none" font-size="8px" fill="#000000" x="35.016956695544025" y="-5.0208623550634215" font-family="sans-serif">C…</text></g><g class="relationship" transform="translate(206.3084705693568 215.97261328515495) rotate(496.7917151473862)"><path class="outline" fill="#A5ABB6" stroke="none" d="M 25 0.5 L 27.92413369434766 0.5 L 27.92413369434766 -0.5 L 25 -0.5 Z M 95.70928994434766 0.5 L 98.63342363869532 0.5 L 98.63342363869532 3.5 L 105.63342363869532 0 L 98.63342363869532 -3.5 L 98.63342363869532 -0.5 L 95.70928994434766 -0.5 Z"/><text text-anchor="middle" pointer-events="none" font-size="8px" fill="#000000" x="61.81671181934766" y="3" transform="rotate(180 61.81671181934766 0)" font-family="sans-serif">COMPLEMENTS</text></g><g class="relationship" transform="translate(206.3084705693568 215.97261328515495) rotate(445.1825176492699)"><path class="outline" fill="#A5ABB6" stroke="none" d="M 25 0.5 L 34.61717073686029 0.5 L 34.61717073686029 -0.5 L 25 -0.5 Z M 34.61717073686029 0.5 L 44.234341473720576 0.5 L 44.234341473720576 3.5 L 51.234341473720576 0 L 44.234341473720576 -3.5 L 44.234341473720576 -0.5 L 34.61717073686029 -0.5 Z"/><text text-anchor="middle" pointer-events="none" font-size="8px" fill="#000000" x="34.61717073686029" y="3" font-family="sans-serif"/></g><g class="relationship" transform="translate(206.3084705693568 215.97261328515495) rotate(267.455488037553)"><path class="outline" fill="#A5ABB6" stroke="none" d="M 25 0.5 L 55.591696853860654 0.5 L 55.591696853860654 -0.5 L 25 -0.5 Z M 123.37685310386065 0.5 L 153.9685499577213 0.5 L 153.9685499577213 3.5 L 160.9685499577213 0 L 153.9685499577213 -3.5 L 153.9685499577213 -0.5 L 123.37685310386065 -0.5 Z"/><text text-anchor="middle" pointer-events="none" font-size="8px" fill="#000000" x="89.48427497886065" y="3" transform="rotate(180 89.48427497886065 0)" font-family="sans-serif">COMPLEMENTS</text></g><g class="relationship" transform="translate(119.82290194153471 -19.377226458929158) rotate(492.2537490868541)"><path class="outline" fill="#A5ABB6" stroke="none" d="M 25 0.5 L 32.42750353689262 0.5 L 32.42750353689262 -0.5 L 25 -0.5 Z M 79.17359728689263 0.5 L 86.60110082378525 0.5 L 86.60110082378525 3.5 L 93.60110082378525 0 L 86.60110082378525 -3.5 L 86.60110082378525 -0.5 L 79.17359728689263 -0.5 Z"/><text text-anchor="middle" pointer-events="none" font-size="8px" fill="#000000" x="55.80055041189262" y="3" transform="rotate(180 55.80055041189262 0)" font-family="sans-serif">CONTAINS</text></g><g class="relationship" transform="translate(119.82290194153471 -19.377226458929158) rotate(417.9392255381092)"><path class="outline" fill="#A5ABB6" stroke="none" d="M 24.018736134675446,-6.953439040707552 L 24.277555179777966,-5.987513214418485 A 265.28128015402547 265.28128015402547 0 0 1 56.754031396546154,-12.54753061794355 L 56.61763514809899,-13.53818497916626 A 266.28128015402547 266.28128015402547 0 0 0 24.018736134675446,-6.953439040707552 Z M 124.34347101039015,-14.168201400587634 L 124.22552780311922,-13.1751810584704 A 265.28128015402547 265.28128015402547 0 0 1 156.8184217108713,-7.220468428050706 L 156.09600716038779,-4.308747765409852 L 163.7328390154472,-6.020121254029307 L 157.78164111151597,-11.10276264490518 L 157.05922656103246,-8.191041982264325 A 266.28128015402547 266.28128015402547 0 0 0 124.34347101039015,-14.168201400587634"/><text text-anchor="middle" pointer-events="none" font-size="8px" fill="#000000" x="90.46509183062697" y="-12.515254606845247" font-family="sans-serif">COMPLEMENTS</text></g><g class="relationship" transform="translate(119.82290194153471 -19.377226458929158) rotate(509.0469570598913)"><path class="outline" fill="#A5ABB6" stroke="none" d="M 24.018736134675446,6.953439040707552 L 24.277555179777966,5.987513214418485 A 460.76034964567583 460.76034964567583 0 0 0 106.88628543677116,20.228026421528682 L 106.80675423690211,21.22485879873534 A 461.76034964567583 461.76034964567583 0 0 1 24.018736134675446,6.953439040707552 Z M 174.6030664373415,21.64093581481319 L 174.53577621295344,20.64320237059985 A 460.76034964567583 460.76034964567583 0 0 0 257.31306994390303,7.417690144050772 L 256.57223822215076,4.510600816210024 L 264.2197503291568,6.173597681268937 L 258.30084557290604,11.293809247838436 L 257.56001385115377,8.386719919997688 A 461.76034964567583 461.76034964567583 0 0 1 174.6030664373415,21.64093581481319"/><text text-anchor="middle" pointer-events="none" font-size="8px" fill="#000000" x="140.70033227307167" y="25.178855020426795" transform="rotate(180 140.70033227307167 22.178855020426795)" font-family="sans-serif">COMPLEMENTS</text></g><g class="relationship" transform="translate(119.82290194153471 -19.377226458929158) rotate(433.38633029995276)"><path class="outline" fill="#A5ABB6" stroke="none" d="M 25 0.5 L 125.04595115020305 0.5 L 125.04595115020305 -0.5 L 25 -0.5 Z M 192.83110740020305 0.5 L 292.8770585504061 0.5 L 292.8770585504061 3.5 L 299.8770585504061 0 L 292.8770585504061 -3.5 L 292.8770585504061 -0.5 L 192.83110740020305 -0.5 Z"/><text text-anchor="middle" pointer-events="none" font-size="8px" fill="#000000" x="158.93852927520305" y="3" font-family="sans-serif">COMPLEMENTS</text></g><g class="relationship" transform="translate(119.82290194153471 -19.377226458929158) rotate(451.53953823807467)"><path class="outline" fill="#A5ABB6" stroke="none" d="M 25 0.5 L 125.06023392124919 0.5 L 125.06023392124919 -0.5 L 25 -0.5 Z M 192.8453901712492 0.5 L 292.9056240924984 0.5 L 292.9056240924984 3.5 L 299.9056240924984 0 L 292.9056240924984 -3.5 L 292.9056240924984 -0.5 L 192.8453901712492 -0.5 Z"/><text text-anchor="middle" pointer-events="none" font-size="8px" fill="#000000" x="158.9528120462492" y="3" transform="rotate(180 158.9528120462492 0)" font-family="sans-serif">COMPLEMENTS</text></g><g class="relationship" transform="translate(119.82290194153471 -19.377226458929158) rotate(392.35756381247313)"><path class="outline" fill="#A5ABB6" stroke="none" d="M 25 0.5 L 26.472647978150825 0.5 L 26.472647978150825 -0.5 L 25 -0.5 Z M 59.136710478150825 0.5 L 60.60935845630165 0.5 L 60.60935845630165 3.5 L 67.60935845630165 0 L 60.60935845630165 -3.5 L 60.60935845630165 -0.5 L 59.136710478150825 -0.5 Z"/><text text-anchor="middle" pointer-events="none" font-size="8px" fill="#000000" x="42.804679228150825" y="3" font-family="sans-serif">COM…</text></g><g class="relationship" transform="translate(219.61528243588043 139.9476607453375) rotate(181.80943281574275)"><path class="outline" fill="#A5ABB6" stroke="none" d="M 25 0.5 L 136.27406482708133 0.5 L 136.27406482708133 -0.5 L 25 -0.5 Z M 204.05922107708133 0.5 L 315.33328590416266 0.5 L 315.33328590416266 3.5 L 322.33328590416266 0 L 315.33328590416266 -3.5 L 315.33328590416266 -0.5 L 204.05922107708133 -0.5 Z"/><text text-anchor="middle" pointer-events="none" font-size="8px" fill="#000000" x="170.16664295208133" y="3" transform="rotate(180 170.16664295208133 0)" font-family="sans-serif">COMPLEMENTS</text></g><g class="relationship" transform="translate(219.61528243588043 139.9476607453375) rotate(503.8772922374808)"><path class="outline" fill="#A5ABB6" stroke="none" d="M 24.018736134675446,6.953439040707552 L 24.277555179777966,5.987513214418485 A 435.12629183657793 435.12629183657793 0 0 0 100.29073931478129,19.271583967107347 L 100.20661250400497,20.268039023649578 A 436.12629183657793 436.12629183657793 0 0 1 24.018736134675446,6.953439040707552 Z M 167.99972834500815,20.703575311303155 L 167.9284113838543,19.706121607589637 A 435.12629183657793 435.12629183657793 0 0 0 244.1060007790842,7.3997991660119755 L 243.36683969234787,4.492284610957311 L 251.01339492200117,6.159675722802916 L 245.09154889473268,11.276485239418195 L 244.35238780799634,8.36897068436353 A 436.12629183657793 436.12629183657793 0 0 1 167.99972834500815,20.703575311303155"/><text text-anchor="middle" pointer-events="none" font-size="8px" fill="#000000" x="134.09790693419387" y="24.305092307685186" transform="rotate(180 134.09790693419387 21.305092307685186)" font-family="sans-serif">COMPLEMENTS</text></g><g class="relationship" transform="translate(219.61528243588043 139.9476607453375) rotate(459.9280335286334)"><path class="outline" fill="#A5ABB6" stroke="none" d="M 24.018736134675446,-6.953439040707552 L 24.277555179777966,-5.987513214418485 A 45.31338187735259 45.31338187735259 0 0 1 25.347716348549195,-6.260329077922975 L 25.112514193743404,-7.232275550921727 A 46.31338187735259 46.31338187735259 0 0 0 24.018736134675446,-6.953439040707552 Z M 44.94620036506087,-7.660348041199562 L 44.75315294345177,-6.679158613509848 A 45.31338187735259 45.31338187735259 0 0 1 45.834088491854466,-6.45277009188196 L 45.183382231782105,-3.524189998542759 L 52.77589308632466,-5.422552167269656 L 46.70169683861761,-10.357543549667561 L 46.050990578545246,-7.42896345632836 A 46.31338187735259 46.31338187735259 0 0 0 44.94620036506087,-7.660348041199562"/><text text-anchor="middle" pointer-events="none" font-size="8px" fill="#000000" x="35.016956695544025" y="-5.0208623550634215" transform="rotate(180 35.016956695544025 -8.020862355063421)" font-family="sans-serif">C…</text></g><g class="relationship" transform="translate(219.61528243588043 139.9476607453375) rotate(237.9392255381092)"><path class="outline" fill="#A5ABB6" stroke="none" d="M 24.018736134675446,-6.953439040707552 L 24.277555179777966,-5.987513214418485 A 265.28128015402547 265.28128015402547 0 0 1 56.754031396546154,-12.54753061794355 L 56.61763514809899,-13.53818497916626 A 266.28128015402547 266.28128015402547 0 0 0 24.018736134675446,-6.953439040707552 Z M 124.34347101039015,-14.168201400587634 L 124.22552780311922,-13.1751810584704 A 265.28128015402547 265.28128015402547 0 0 1 156.8184217108713,-7.220468428050706 L 156.09600716038779,-4.308747765409852 L 163.7328390154472,-6.020121254029307 L 157.78164111151597,-11.10276264490518 L 157.05922656103246,-8.191041982264325 A 266.28128015402547 266.28128015402547 0 0 0 124.34347101039015,-14.168201400587634"/><text text-anchor="middle" pointer-events="none" font-size="8px" fill="#000000" x="90.46509183062697" y="-12.515254606845247" transform="rotate(180 90.46509183062697 -15.515254606845247)" font-family="sans-serif">COMPLEMENTS</text></g><g class="relationship" transform="translate(219.61528243588043 139.9476607453375) rotate(201.725107734652)"><path class="outline" fill="#A5ABB6" stroke="none" d="M 25 0.5 L 69.7616563258757 0.5 L 69.7616563258757 -0.5 L 25 -0.5 Z M 116.5077500758757 0.5 L 161.2694064017514 0.5 L 161.2694064017514 3.5 L 168.2694064017514 0 L 161.2694064017514 -3.5 L 161.2694064017514 -0.5 L 116.5077500758757 -0.5 Z"/><text text-anchor="middle" pointer-events="none" font-size="8px" fill="#000000" x="93.1347032008757" y="3" transform="rotate(180 93.1347032008757 0)" font-family="sans-serif">CONTAINS</text></g><g class="relationship" transform="translate(-2.713730636002225 302.2077742233504) rotate(208.40358832181118)"><path class="outline" fill="#A5ABB6" stroke="none" d="M 25 0.5 L 36.27903624098515 0.5 L 36.27903624098515 -0.5 L 25 -0.5 Z M 83.02512999098515 0.5 L 94.3041662319703 0.5 L 94.3041662319703 3.5 L 101.3041662319703 0 L 94.3041662319703 -3.5 L 94.3041662319703 -0.5 L 83.02512999098515 -0.5 Z"/><text text-anchor="middle" pointer-events="none" font-size="8px" fill="#000000" x="59.65208311598515" y="3" transform="rotate(180 59.65208311598515 0)" font-family="sans-serif">CONTAINS</text></g><g class="relationship" transform="translate(-2.713730636002225 302.2077742233504) rotate(234.22271376271846)"><path class="outline" fill="#A5ABB6" stroke="none" d="M 24.018736134675446,6.953439040707552 L 24.277555179777966,5.987513214418485 A 315.07630080460814 315.07630080460814 0 0 0 69.47620548890004,14.61972928823559 L 69.36083947467827,15.613052338789942 A 316.07630080460814 316.07630080460814 0 0 1 24.018736134675446,6.953439040707552 Z M 137.12065992476218,16.170353480029405 L 137.02164789077978,15.17526724400426 A 315.07630080460814 315.07630080460814 0 0 0 182.35616808518358,7.287655257188912 L 181.6274792050493,4.377498471727238 L 189.26798206461655,6.072407334452496 L 183.327753258696,11.167864304471143 L 182.5990643785617,8.25770751900947 A 316.07630080460814 316.07630080460814 0 0 1 137.12065992476218,16.170353480029405"/><text text-anchor="middle" pointer-events="none" font-size="8px" fill="#000000" x="103.22988409262352" y="20.21280479037273" transform="rotate(180 103.22988409262352 17.21280479037273)" font-family="sans-serif">COMPLEMENTS</text></g><g class="relationship" transform="translate(-2.713730636002225 302.2077742233504) rotate(323.8772922374808)"><path class="outline" fill="#A5ABB6" stroke="none" d="M 24.018736134675446,6.953439040707552 L 24.277555179777966,5.987513214418485 A 435.12629183657793 435.12629183657793 0 0 0 100.29073931478129,19.271583967107347 L 100.20661250400497,20.268039023649578 A 436.12629183657793 436.12629183657793 0 0 1 24.018736134675446,6.953439040707552 Z M 167.99972834500815,20.703575311303155 L 167.9284113838543,19.706121607589637 A 435.12629183657793 435.12629183657793 0 0 0 244.1060007790842,7.3997991660119755 L 243.36683969234787,4.492284610957311 L 251.01339492200117,6.159675722802916 L 245.09154889473268,11.276485239418195 L 244.35238780799634,8.36897068436353 A 436.12629183657793 436.12629183657793 0 0 1 167.99972834500815,20.703575311303155"/><text text-anchor="middle" pointer-events="none" font-size="8px" fill="#000000" x="134.09790693419387" y="24.305092307685186" font-family="sans-serif">COMPLEMENTS</text></g><g class="relationship" transform="translate(-2.713730636002225 302.2077742233504) rotate(306.42937258373115)"><path class="outline" fill="#A5ABB6" stroke="none" d="M 25 0.5 L 131.65036863535116 0.5 L 131.65036863535116 -0.5 L 25 -0.5 Z M 199.43552488535116 0.5 L 306.0858935207023 0.5 L 306.0858935207023 3.5 L 313.0858935207023 0 L 306.0858935207023 -3.5 L 306.0858935207023 -0.5 L 199.43552488535116 -0.5 Z"/><text text-anchor="middle" pointer-events="none" font-size="8px" fill="#000000" x="165.54294676035116" y="3" font-family="sans-serif">COMPLEMENTS</text></g><g class="relationship" transform="translate(-2.713730636002225 302.2077742233504) rotate(361.612279229899)"><path class="outline" fill="#A5ABB6" stroke="none" d="M 25 0.5 L 26.201659927634644 0.5 L 26.201659927634644 -0.5 L 25 -0.5 Z M 80.65087867763464 0.5 L 81.85253860526929 0.5 L 81.85253860526929 3.5 L 88.85253860526929 0 L 81.85253860526929 -3.5 L 81.85253860526929 -0.5 L 80.65087867763464 -0.5 Z"/><text text-anchor="middle" pointer-events="none" font-size="8px" fill="#000000" x="53.426269302634644" y="3" font-family="sans-serif">COMPLEM…</text></g><g class="relationship" transform="translate(-2.713730636002225 302.2077742233504) rotate(357.27055128273514)"><path class="outline" fill="#A5ABB6" stroke="none" d="M 25 0.5 L 70.44200962134924 0.5 L 70.44200962134924 -0.5 L 25 -0.5 Z M 138.22716587134926 0.5 L 183.66917549269849 0.5 L 183.66917549269849 3.5 L 190.66917549269849 0 L 183.66917549269849 -3.5 L 183.66917549269849 -0.5 L 138.22716587134926 -0.5 Z"/><text text-anchor="middle" pointer-events="none" font-size="8px" fill="#000000" x="104.33458774634924" y="3" font-family="sans-serif">COMPLEMENTS</text></g></g><g class="layer nodes"><g class="node selected" transform="translate(-127.54481460000194,128.98050418497252)"><circle class="outline" cx="0" cy="0" r="25" fill="#FFC454" stroke="#d7a013" stroke-width="2px"/><text text-anchor="middle" pointer-events="none" font-family="sans-serif" dy="1.5625" font-size="25" fill="#2A2C34"/><text text-anchor="middle" pointer-events="none" font-family="sans-serif" dy="1.5625" font-size="25" fill="#2A2C34"/><text text-anchor="middle" pointer-events="none" font-family="sans-serif" dy="1.5625" font-size="25" fill="#2A2C34"/><text text-anchor="middle" pointer-events="none" x="0" y="-5" font-size="10px" fill="#2A2C34" font-family="sans-serif"> Buddha</text><text text-anchor="middle" pointer-events="none" x="0" y="5" font-size="10px" fill="#2A2C34" font-family="sans-serif"> Jumps</text><text text-anchor="middle" pointer-events="none" x="0" y="15" font-size="10px" fill="#2A2C34" font-family="sans-serif"> over the</text></g><g class="node" transform="translate(-23.82136427794366,219.50424879071053)"><circle class="outline" cx="0" cy="0" r="25" fill="#DA7194" stroke="#cc3c6c" stroke-width="2px"/><text text-anchor="middle" pointer-events="none" font-family="sans-serif" dy="1.5625" font-size="25" fill="#FFFFFF"/><text text-anchor="middle" pointer-events="none" x="0" y="5" font-size="10px" fill="#FFFFFF" font-family="sans-serif"> Pork Belly</text></g><g class="node" transform="translate(111.09373467307904,305.411114165754)"><circle class="outline" cx="0" cy="0" r="25" fill="#FFC454" stroke="#d7a013" stroke-width="2px"/><text text-anchor="middle" pointer-events="none" font-family="sans-serif" dy="1.5625" font-size="25" fill="#2A2C34"/><text text-anchor="middle" pointer-events="none" font-family="sans-serif" dy="1.5625" font-size="25" fill="#2A2C34"/><text text-anchor="middle" pointer-events="none" x="0" y="0" font-size="10px" fill="#2A2C34" font-family="sans-serif"> Cabbage</text><text text-anchor="middle" pointer-events="none" x="0" y="10" font-size="10px" fill="#2A2C34" font-family="sans-serif"> Rice</text></g><g class="node" transform="translate(83.57791681754912,139.0523256948125)"><circle class="outline" cx="0" cy="0" r="25" fill="#ECB5C9" stroke="#da7298" stroke-width="2px"/><text text-anchor="middle" pointer-events="none" font-family="sans-serif" dy="1.5625" font-size="25" fill="#2A2C34"/><text text-anchor="middle" pointer-events="none" x="0" y="5" font-size="10px" fill="#2A2C34" font-family="sans-serif"> shiitake…</text></g><g class="node" transform="translate(212.71077494644214,291.93764022910455)"><circle class="outline" cx="0" cy="0" r="25" fill="#FFC454" stroke="#d7a013" stroke-width="2px"/><text text-anchor="middle" pointer-events="none" font-family="sans-serif" dy="1.5625" font-size="25" fill="#2A2C34"/><text text-anchor="middle" pointer-events="none" font-family="sans-serif" dy="1.5625" font-size="25" fill="#2A2C34"/><text text-anchor="middle" pointer-events="none" x="0" y="0" font-size="10px" fill="#2A2C34" font-family="sans-serif"> PUTIEN</text><text text-anchor="middle" pointer-events="none" x="0" y="10" font-size="10px" fill="#2A2C34" font-family="sans-serif"> Ca Fen</text></g><g class="node" transform="translate(198.05230101878647,30.187422169905616)"><circle class="outline" cx="0" cy="0" r="25" fill="#FFC454" stroke="#d7a013" stroke-width="2px"/><text text-anchor="middle" pointer-events="none" font-family="sans-serif" dy="1.5625" font-size="25" fill="#2A2C34"/><text text-anchor="middle" pointer-events="none" font-family="sans-serif" dy="1.5625" font-size="25" fill="#2A2C34"/><text text-anchor="middle" pointer-events="none" font-family="sans-serif" dy="1.5625" font-size="25" fill="#2A2C34"/><text text-anchor="middle" pointer-events="none" font-family="sans-serif" dy="1.5625" font-size="25" fill="#2A2C34"/><text text-anchor="middle" pointer-events="none" x="0" y="-10" font-size="10px" fill="#2A2C34" font-family="sans-serif"> Fried</text><text text-anchor="middle" pointer-events="none" x="0" y="0" font-size="10px" fill="#2A2C34" font-family="sans-serif"> Heng</text><text text-anchor="middle" pointer-events="none" x="0" y="10" font-size="10px" fill="#2A2C34" font-family="sans-serif"> Hwa Bee</text><text text-anchor="middle" pointer-events="none" x="0" y="20" font-size="10px" fill="#2A2C34" font-family="sans-serif"> Hoon</text></g><g class="node" transform="translate(29.707753944073335,165.32199326118453)"><circle class="outline" cx="0" cy="0" r="25" fill="#DA7194" stroke="#cc3c6c" stroke-width="2px"/><text text-anchor="middle" pointer-events="none" font-family="sans-serif" dy="1.5625" font-size="25" fill="#FFFFFF"/><text text-anchor="middle" pointer-events="none" x="0" y="5" font-size="10px" fill="#FFFFFF" font-family="sans-serif"> Chicken</text></g><g class="node" transform="translate(206.3084705693568,215.97261328515495)"><circle class="outline" cx="0" cy="0" r="25" fill="#FFC454" stroke="#d7a013" stroke-width="2px"/><text text-anchor="middle" pointer-events="none" font-family="sans-serif" dy="1.5625" font-size="25" fill="#2A2C34"/><text text-anchor="middle" pointer-events="none" font-family="sans-serif" dy="1.5625" font-size="25" fill="#2A2C34"/><text text-anchor="middle" pointer-events="none" font-family="sans-serif" dy="1.5625" font-size="25" fill="#2A2C34"/><text text-anchor="middle" pointer-events="none" font-family="sans-serif" dy="1.5625" font-size="25" fill="#2A2C34"/><text text-anchor="middle" pointer-events="none" x="0" y="-10" font-size="10px" fill="#2A2C34" font-family="sans-serif"> Deep</text><text text-anchor="middle" pointer-events="none" x="0" y="0" font-size="10px" fill="#2A2C34" font-family="sans-serif"> Fried</text><text text-anchor="middle" pointer-events="none" x="0" y="10" font-size="10px" fill="#2A2C34" font-family="sans-serif"> Chicken</text><text text-anchor="middle" pointer-events="none" x="0" y="20" font-size="10px" fill="#2A2C34" font-family="sans-serif"> with</text></g><g class="node" transform="translate(40.073714105401415,68.40824019752145)"><circle class="outline" cx="0" cy="0" r="25" fill="#DA7194" stroke="#cc3c6c" stroke-width="2px"/><text text-anchor="middle" pointer-events="none" font-family="sans-serif" dy="1.5625" font-size="25" fill="#FFFFFF"/><text text-anchor="middle" pointer-events="none" font-family="sans-serif" dy="1.5625" font-size="25" fill="#FFFFFF"/><text text-anchor="middle" pointer-events="none" x="0" y="0" font-size="10px" fill="#FFFFFF" font-family="sans-serif"> Pig</text><text text-anchor="middle" pointer-events="none" x="0" y="10" font-size="10px" fill="#FFFFFF" font-family="sans-serif"> Trotter</text></g><g class="node" transform="translate(119.82290194153471,-19.377226458929158)"><circle class="outline" cx="0" cy="0" r="25" fill="#FFC454" stroke="#d7a013" stroke-width="2px"/><text text-anchor="middle" pointer-events="none" font-family="sans-serif" dy="1.5625" font-size="25" fill="#2A2C34"/><text text-anchor="middle" pointer-events="none" font-family="sans-serif" dy="1.5625" font-size="25" fill="#2A2C34"/><text text-anchor="middle" pointer-events="none" font-family="sans-serif" dy="1.5625" font-size="25" fill="#2A2C34"/><text text-anchor="middle" pointer-events="none" font-family="sans-serif" dy="1.5625" font-size="25" fill="#2A2C34"/><text text-anchor="middle" pointer-events="none" x="0" y="-10" font-size="10px" fill="#2A2C34" font-family="sans-serif"> Deep</text><text text-anchor="middle" pointer-events="none" x="0" y="0" font-size="10px" fill="#2A2C34" font-family="sans-serif"> Fried</text><text text-anchor="middle" pointer-events="none" x="0" y="10" font-size="10px" fill="#2A2C34" font-family="sans-serif"> Pork</text><text text-anchor="middle" pointer-events="none" x="0" y="20" font-size="10px" fill="#2A2C34" font-family="sans-serif"> Trot…</text></g><g class="node" transform="translate(219.61528243588043,139.9476607453375)"><circle class="outline" cx="0" cy="0" r="25" fill="#FFC454" stroke="#d7a013" stroke-width="2px"/><text text-anchor="middle" pointer-events="none" font-family="sans-serif" dy="1.5625" font-size="25" fill="#2A2C34"/><text text-anchor="middle" pointer-events="none" font-family="sans-serif" dy="1.5625" font-size="25" fill="#2A2C34"/><text text-anchor="middle" pointer-events="none" font-family="sans-serif" dy="1.5625" font-size="25" fill="#2A2C34"/><text text-anchor="middle" pointer-events="none" font-family="sans-serif" dy="1.5625" font-size="25" fill="#2A2C34"/><text text-anchor="middle" pointer-events="none" x="0" y="-10" font-size="10px" fill="#2A2C34" font-family="sans-serif"> Cold</text><text text-anchor="middle" pointer-events="none" x="0" y="0" font-size="10px" fill="#2A2C34" font-family="sans-serif"> Pork</text><text text-anchor="middle" pointer-events="none" x="0" y="10" font-size="10px" fill="#2A2C34" font-family="sans-serif"> Trotters</text><text text-anchor="middle" pointer-events="none" x="0" y="20" font-size="10px" fill="#2A2C34" font-family="sans-serif"> Jelly</text></g><g class="node" transform="translate(-113.8132477175282,242.1274969952541)"><circle class="outline" cx="0" cy="0" r="25" fill="#DA7194" stroke="#cc3c6c" stroke-width="2px"/><text text-anchor="middle" pointer-events="none" font-family="sans-serif" dy="1.5625" font-size="25" fill="#FFFFFF"/><text text-anchor="middle" pointer-events="none" x="0" y="5" font-size="10px" fill="#FFFFFF" font-family="sans-serif"> Duck</text></g><g class="node" transform="translate(-2.713730636002225,302.2077742233504)"><circle class="outline" cx="0" cy="0" r="25" fill="#FFC454" stroke="#d7a013" stroke-width="2px"/><text text-anchor="middle" pointer-events="none" font-family="sans-serif" dy="1.5625" font-size="25" fill="#2A2C34"/><text text-anchor="middle" pointer-events="none" font-family="sans-serif" dy="1.5625" font-size="25" fill="#2A2C34"/><text text-anchor="middle" pointer-events="none" font-family="sans-serif" dy="1.5625" font-size="25" fill="#2A2C34"/><text text-anchor="middle" pointer-events="none" font-family="sans-serif" dy="1.5625" font-size="25" fill="#2A2C34"/><text text-anchor="middle" pointer-events="none" x="0" y="-10" font-size="10px" fill="#2A2C34" font-family="sans-serif"> Deep</text><text text-anchor="middle" pointer-events="none" x="0" y="0" font-size="10px" fill="#2A2C34" font-family="sans-serif"> Fried</text><text text-anchor="middle" pointer-events="none" x="0" y="10" font-size="10px" fill="#2A2C34" font-family="sans-serif"> Duck</text><text text-anchor="middle" pointer-events="none" x="0" y="20" font-size="10px" fill="#2A2C34" font-family="sans-serif"> with</text></g></g></svg>