<svg xmlns="http://www.w3.org/2000/svg" xmlns:xlink="http://www.w3.org/1999/xlink" version="1.1" x="0px" y="0px" viewBox="0 0 48 60" enable-background="new 0 0 48 48" xml:space="preserve"><g><g><path d="M20.9,31.2c-0.9-1.3-4-9.7-4.6-11.4c-0.2-0.4,0-0.9,0.4-1.2c0.4-0.3,0.9-0.2,1.2,0.1c1.4,1.1,8.2,6.9,9.1,8.2    c0.6,0.8,0.8,1.8,0.6,2.8c-0.2,1-0.7,1.9-1.5,2.4C23.6,33.7,21.6,32.2,20.9,31.2z M19.5,22.7c1.2,3.3,2.6,6.8,3,7.4    c0.5,0.8,1.7,1,2.4,0.4c0.4-0.3,0.6-0.7,0.7-1.1c0.1-0.5,0-0.9-0.3-1.3C25,27.5,22.2,25,19.5,22.7z"/></g><g><path d="M24,13.9c-0.6,0-1-0.4-1-1v-1.4c0-0.6,0.4-1,1-1c0.6,0,1,0.4,1,1v1.4C25,13.5,24.6,13.9,24,13.9z"/></g><g><path d="M40.2,28.8h-1.4c-0.6,0-1-0.4-1-1s0.4-1,1-1h1.4c0.6,0,1,0.4,1,1S40.8,28.8,40.2,28.8z"/></g><g><path d="M9.1,28.8H7.8c-0.6,0-1-0.4-1-1s0.4-1,1-1h1.4c0.6,0,1,0.4,1,1S9.7,28.8,9.1,28.8z"/></g><g><path d="M38.6,20.5l-1.2,0.7c-0.5,0.3-1.1,0.1-1.4-0.4c-0.3-0.5-0.1-1.1,0.4-1.4l1.2-0.7c0.5-0.3,1.1-0.1,1.4,0.4    C39.2,19.7,39,20.3,38.6,20.5z"/></g><g><path d="M11.6,36.1l-1.2,0.7c-0.5,0.3-1.1,0.1-1.4-0.4c-0.3-0.5-0.1-1.1,0.4-1.4l1.2-0.7c0.5-0.3,1.1-0.1,1.4,0.4    C12.3,35.2,12.1,35.8,11.6,36.1z"/></g><g><path d="M33,14.2l-0.7,1.2c-0.3,0.5-0.9,0.6-1.4,0.4c-0.5-0.3-0.6-0.9-0.4-1.4l0.7-1.2c0.3-0.5,0.9-0.6,1.4-0.4    C33.1,13.1,33.3,13.8,33,14.2z"/></g><g><path d="M16.7,13.2l0.7,1.2c0.3,0.5,0.1,1.1-0.4,1.4c-0.5,0.3-1.1,0.1-1.4-0.4L15,14.2c-0.3-0.5-0.1-1.1,0.4-1.4    C15.9,12.6,16.5,12.8,16.7,13.2z"/></g><g><path d="M10.4,18.8l1.2,0.7c0.5,0.3,0.6,0.9,0.4,1.4c-0.3,0.5-0.9,0.6-1.4,0.4l-1.2-0.7c-0.5-0.3-0.6-0.9-0.4-1.4    C9.3,18.7,10,18.5,10.4,18.8z"/></g><g><path d="M37.4,34.4l1.2,0.7c0.5,0.3,0.6,0.9,0.4,1.4c-0.3,0.5-0.9,0.6-1.4,0.4l-1.2-0.7c-0.5-0.3-0.6-0.9-0.4-1.4    C36.3,34.3,36.9,34.1,37.4,34.4z"/></g><g><path d="M24,3.7c-13.3,0-24,10.7-24,24C0,34.1,2.6,40,6.7,44.3h34.6C45.4,40,48,34.1,48,27.7C48,14.4,37.3,3.7,24,3.7z M39.5,40.3    h-31C5.6,36.8,4,32.3,4,27.7c0-11,9-20,20-20c11,0,20,9,20,20C44,32.3,42.4,36.8,39.5,40.3z"/></g></g><text x="0" y="63" fill="#000000" font-size="5px" font-weight="bold" font-family="'Helvetica Neue', Helvetica, Arial-Unicode, Arial, Sans-serif">Created by Creative Stall</text><text x="0" y="68" fill="#000000" font-size="5px" font-weight="bold" font-family="'Helvetica Neue', Helvetica, Arial-Unicode, Arial, Sans-serif">from the Noun Project</text></svg>